<mxfile host="app.diagrams.net" modified="2024-09-08T15:14:43.536Z" agent="Mozilla/5.0 (Macintosh; Intel Mac OS X 10_15_7) AppleWebKit/537.36 (KHTML, like Gecko) Chrome/128.0.0.0 Safari/537.36 Edg/128.0.0.0" version="24.6.5" etag="ET6f_VhczCTxW9OEWzkH" type="github">
  <diagram name="第 1 页" id="L7j6VMS08V03UZehalkH">
    <mxGraphModel>
      <root>
        <mxCell id="0" />
        <mxCell id="1" parent="0" />
      </root>
    </mxGraphModel>
  </diagram>
</mxfile>
